<?xml version="1.0" encoding="utf-8"?>
<!-- Generator: Adobe Illustrator 15.0.2, SVG Export Plug-In . SVG Version: 6.00 Build 0)  -->
<!DOCTYPE svg PUBLIC "-//W3C//DTD SVG 1.1//EN" "http://www.w3.org/Graphics/SVG/1.1/DTD/svg11.dtd">
<svg version="1.1"
	 id="Layer_1" inkscape:version="0.48.1 " sodipodi:docname="Colorful_Animal_Sea_Turtle_black_white_line_art_coloring_book_colouring.svg" xmlns:dc="http://purl.org/dc/elements/1.1/" xmlns:cc="http://creativecommons.org/ns#" xmlns:rdf="http://www.w3.org/1999/02/22-rdf-syntax-ns#" xmlns:svg="http://www.w3.org/2000/svg" xmlns:sodipodi="http://sodipodi.sourceforge.net/DTD/sodipodi-0.dtd" xmlns:inkscape="http://www.inkscape.org/namespaces/inkscape"
	 xmlns="http://www.w3.org/2000/svg" xmlns:xlink="http://www.w3.org/1999/xlink" x="0px" y="0px" width="1440px" height="1440px"
	 viewBox="0 0 1440 1440" enable-background="new 0 0 1440 1440" xml:space="preserve">
<sodipodi:namedview  id="namedview767" inkscape:window-maximized="0" pagecolor="#ffffff" bordercolor="#666666" borderopacity="1" gridtolerance="10" guidetolerance="10" objecttolerance="10" inkscape:zoom="0.40416667" inkscape:cx="463.56824" inkscape:cy="758.42819" showgrid="false" inkscape:pageopacity="0" inkscape:pageshadow="2" inkscape:current-layer="Layer_1" inkscape:window-width="1436" inkscape:window-height="828" inkscape:window-x="439" inkscape:window-y="68">
	</sodipodi:namedview>
<path id="path549" inkscape:connector-curvature="0" fill="none" stroke="#000000" stroke-width="12" d="M83.471,954.551
	c18.773-5.808,114.021-28.394,216.91-96.804c30.068-19.994,60.823-43.938,90.478-72.499
	c13.049,98.157,57.028,183.077,118.641,241.73c-35.524,93.295-95.879,302.875,27.047,406.652c0,0,46.41,10.514,38.802-81.143
	c-7.613-91.663,41.158-32.309,45.978-96.169c3.517-46.612-42.464-108.358-31.103-172.791
	c45.789,22.288,96.381,32.358,148.523,27.016c35.23-3.596,68.475-13.957,98.936-29.898c7.89,57.925-24.857,117.498-17.56,159.566
	c10.93,62.938,53.718-1.794,54.974,90.229c1.247,92.036,46.387,76.132,46.387,76.132c104.635-109.662,42.041-292.037-2.817-388.031
	c71.688-76.373,112.146-191.708,100.678-315.969c-0.183-1.929-0.388-3.844-0.596-5.75c99.115,66.267,233.569,118.244,377.196,63.798
	c0,0,23.97-2.792-6.672-38.986c-12.649-14.961-70.111-94.314-174.965-157.354c-70.927-42.644-163.554-77.784-278.64-80.47
	c-45.688-59.246-106.33-101.313-173.611-118.051c-6.33-23.413-2.991-52.49,25.949-84.232
	c64.443-35.333,100.418-104.63,83.095-170.796C850.282,31.284,760.523-13.489,670.611,10.74
	c-89.938,24.212-145.952,108.238-125.146,187.688c8.913,34.024,30.498,61.651,59.297,80.26
	c12.492,23.036,23.234,57.254,6.601,92.921c-91.309,30.435-163.612,108.299-199.574,208.396
	C296.318,625.45,74.587,738.862,46.6,947.286C46.6,947.286,38,968.626,83.471,954.551L83.471,954.551z"/>
</svg>
