<?xml version="1.0" encoding="utf-8"?>
<!-- Generator: Adobe Illustrator 15.0.2, SVG Export Plug-In . SVG Version: 6.00 Build 0)  -->
<!DOCTYPE svg PUBLIC "-//W3C//DTD SVG 1.1//EN" "http://www.w3.org/Graphics/SVG/1.1/DTD/svg11.dtd">
<svg version="1.1" id="Layer_1" xmlns="http://www.w3.org/2000/svg" xmlns:xlink="http://www.w3.org/1999/xlink" x="0px" y="0px"
	 width="595.28px" height="841.89px" viewBox="0 0 595.28 841.89" enable-background="new 0 0 595.28 841.89" xml:space="preserve">
<path fill="none" stroke="#010202" stroke-width="4" stroke-linecap="round" stroke-miterlimit="10" d="M161.5,426.5
	c4.362-3.524,8.183-7.634,10.499-12.806c1.66-2.454,3.247-4.955,4.762-7.501c-3.444-2.458-6.751-5.243-9.202-8.733
	c-8.951-12.742-3.788-24.427-3.02-38.923c6.629-1.121,15.726,0.87,22.445,1.387c8.701,0.669,19.377-5.111,27.05-8.992
	c11.819-5.976,29.837-4.026,31.115-19.268c0.386-4.606,3.531-2.654,5.468,0.159c4.167,6.051,4.584,12.71,13.385,13.042
	c11.007,0.414,22.192,0.856,33.131,2.183c7.665,0.93,19.587,4.008,27.066,1.476c1.545,14.765,3.729,24.56,14,36.256
	c4.343,4.946,13.188,11.866,6.378,18.017c-5.299,4.787-4.765,9.852-9.239,14.652c-11.364,12.199-21.635,25.437-33.654,37.118
	c-5.343,5.192-12.896,11.195-16.168,17.889c-3.457,7.072-2.876,17.926-2.085,26.243c1.197,12.578,29.81,13.559,39.575,13.616
	c10.334,0.061,6.288-12.489,4.433-18.505c-2.732-8.864,6.958-13.915,13.185-16.293c17.681-6.754,29.388-17.188,44.753-27.291
	c5.155-3.39,42.416-24.186,47.374-25.728"/>
</svg>
