<?xml version="1.0" encoding="utf-8"?>
<!-- Generator: Adobe Illustrator 15.0.2, SVG Export Plug-In . SVG Version: 6.00 Build 0)  -->
<!DOCTYPE svg PUBLIC "-//W3C//DTD SVG 1.1//EN" "http://www.w3.org/Graphics/SVG/1.1/DTD/svg11.dtd">
<svg version="1.1" id="Layer_1" xmlns="http://www.w3.org/2000/svg" xmlns:xlink="http://www.w3.org/1999/xlink" x="0px" y="0px"
	 width="595.28px" height="841.89px" viewBox="0 0 595.28 841.89" enable-background="new 0 0 595.28 841.89" xml:space="preserve">
<path fill="none" stroke="#010202" stroke-width="4" stroke-linecap="round" stroke-miterlimit="10" d="M280,562.667
	c-6.661-8.99-18.914-14.154-24.574-24.13c-3.181-5.608-7.531-9.886-10.753-15.253c-4.381-7.299,4.407-9.444,7.984-13.377
	c8.748-9.611,0.127-23.985,11.264-33.667c10.619-9.232,23.708-6.148,34.187-16.664c8.783-8.813,18.17-12.516,17.087-26.596
	c-1.091-14.189-26.53-21.914-37.528-23.998c-4.332-0.82-15.424-6.487-15.666,1.42c-0.255,8.329,9.273,7.306,13.689,11.522
	c9.304,8.885,4.083,29.18-9.69,29.742c-5.275,0.215-15.908-17.081-18.31-21.542c-6.354-11.804-12.422-29.513-3.948-42.015
	c6.711-9.903,26.268-4.636,36.054-4.523c15.456,0.177,26.825-15.682,36.767-25.813c9.867-10.053,51.047-59.697,36.646-74.336
	c-5.82-5.916-17.506-4.076-24.875-3.437c-15.402,1.336-34.083,3.587-48.334,9.999"/>
</svg>
